PathFileType	4	(X/Y/Z)	7_coords_data.trc
DataRate	CameraRate	NumFrames	NumMarkers	Units	OrigDataRate	OrigDataStartFrame	OrigNumFrames
30.0	30.0	6	21	m	30.0	63	73
Frame#	Time	THUMB_TIP	THUMB_IP	THUMB_MCP	THUMB_CMC	INDEX_TIP	INDEX_DIP	INDEX_PIP	INDEX_MCP	MIDDLE_TIP	MIDDLE_DIP	MIDDLE_PIP	MIDDLE_MCP	RING_TIP	RING_DIP	RING_PIP	RING_MCP	PINKY_TIP	PINKY_DIP	PINKY_PIP	PINKY_MCP	WRIST
X1	Y1	Z1	X2	Y2	Z2	X3	Y3	Z3	X4	Y4	Z4	X5	Y5	Z5	X6	Y6	Z6	X7	Y7	Z7	X8	Y8	Z8	X9	Y9	Z9	X10	Y10	Z10	X11	Y11	Z11	X12	Y12	Z12	X13	Y13	Z13	X14	Y14	Z14	X15	Y15	Z15	X16	Y16	Z16	X17	Y17	Z17	X18	Y18	Z18	X19	Y19	Z19	X20	Y20	Z20	X21	Y21	Z21
62	2.066666666666667	-0.035379501342773435	-0.08110859680175782	0.9880380249023437	-0.039723201751708986	-0.06233760070800781	1.0063800048828124	-0.05053390121459961	-0.047470401763916016	1.029719970703125	-0.05068889999389648	-0.017814699172973632	1.0471700439453124	-0.013227499961853028	-0.03596749877929688	0.9235460205078125	-0.030747499465942383	-0.03231829833984375	0.9363410034179688	-0.046272098541259764	-0.028964799880981447	0.95264501953125	-0.056255901336669925	-0.024414100646972657	0.987968994140625	-0.002992439985275268	-0.0022819299697875973	0.9100579833984375	-0.01975589942932129	-0.00012287800014019	0.9264949951171875	-0.03836119842529297	0.000566236019134521	0.9474840087890625	-0.053195201873779296	-0.001270050048828125	0.9841010131835938	0.007327829837799072	0.012140299797058106	0.9283920288085937	-0.009168549537658692	0.016316799163818358	0.942093994140625	-0.027218500137329103	0.01933289909362793	0.959197998046875	-0.04348730087280273	0.016729700088500978	0.989301025390625	0.019371700286865235	0.0360438003540039	0.97018798828125	0.003039350032806396	0.036678699493408205	0.9784849853515625	-0.012142800331115722	0.03568069839477539	0.9866190185546875	-0.03238420104980469	0.03051639938354492	1.0020900268554687	-0.065060302734375	0.011284700393676758	1.0601099853515625
63	2.1	-0.032987598419189454	-0.07963069915771484	0.987427001953125	-0.03800279998779297	-0.06105270004272461	1.0059099731445313	-0.0493302001953125	-0.04653730010986328	1.02918994140625	-0.05009769821166992	-0.016882999420166016	1.0466500244140624	-0.012721099853515626	-0.0339541015625	0.9227109985351563	-0.0302903995513916	-0.030652799606323243	0.9355960083007813	-0.045747798919677736	-0.027622800827026367	0.9520419921875	-0.05558340072631836	-0.023425800323486328	0.9873790283203125	-0.0025165998935699463	1.7711799591770002e-06	0.9097030029296875	-0.01939609909057617	0.0017778500318527222	0.9260819702148437	-0.038075199127197264	0.002068229913711548	0.9470239868164062	-0.05288410186767578	-0.00018823400139808603	0.9835579833984375	0.007721499919891357	0.014554699897766114	0.92822900390625	-0.00896133041381836	0.018404300689697266	0.9418419799804687	-0.027165599822998047	0.020997600555419924	0.9589180297851563	-0.04356710052490234	0.01803849983215332	0.9889180297851563	0.01930940055847168	0.03828269958496094	0.970343017578125	0.0028538498878479	0.03863880157470703	0.9784340209960938	-0.012452199935913085	0.03739820098876953	0.9864739990234375	-0.03279090118408203	0.031936100006103516	1.001719970703125	-0.06487210083007812	0.012004400253295898	1.059739990234375
64	2.1333333333333333	-0.03064430046081543	-0.07808519744873046	0.9870969848632812	-0.03640869903564453	-0.05972629928588867	1.0054400024414063	-0.048334598541259766	-0.04551890182495117	1.0285699462890625	-0.04993420028686523	-0.01582450008392334	1.0460699462890626	-0.01207260036468506	-0.03186779975891113	0.9219949951171875	-0.029681699752807617	-0.028787900924682617	0.9348660278320312	-0.045179500579833984	-0.026021900177001952	0.9513679809570312	-0.05495920181274414	-0.022147600173950194	0.9867459716796875	-0.002110729932785034	0.0023802299499511717	0.9092830200195312	-0.01901569938659668	0.003801690101623535	0.9257210083007813	-0.037702598571777345	0.0037437000274658204	0.9465490112304688	-0.052590900421142575	0.001175300002098083	0.9831279907226562	0.007950910091400146	0.016795499801635742	0.9279669799804687	-0.008732239723205566	0.02041360092163086	0.941551025390625	-0.027083000183105468	0.02274679946899414	0.9585599975585938	-0.04370690155029297	0.019404399871826173	0.9886320190429687	0.019011499404907227	0.0405885009765625	0.9702069702148437	0.002553459882736206	0.04067359924316406	0.9782559814453125	-0.01265429973602295	0.039164100646972656	0.986385009765625	-0.033048198699951174	0.03335309982299805	1.0014000244140624	-0.0648228988647461	0.01274880027770996	1.059050048828125
65	2.1666666666666665	-0.030022199630737306	-0.07681079864501954	0.986291015625	-0.03592010116577148	-0.058587299346923825	1.0046599731445311	-0.048069198608398436	-0.0445635986328125	1.0280799560546876	-0.04972150039672851	-0.014925700187683105	1.045510009765625	-0.01159060001373291	-0.029827800750732422	0.921385009765625	-0.02927840042114258	-0.02705200004577637	0.9342429809570313	-0.044762298583984374	-0.02451740074157715	0.95068798828125	-0.05464690017700195	-0.020908599853515626	0.9860789794921875	-0.0020913300514221194	0.0046847500801086425	0.9087760009765625	-0.01903630065917969	0.005831820011138916	0.9252020263671875	-0.03769340133666992	0.005482059955596924	0.9461160278320313	-0.052476799011230466	0.0024655499458312987	0.9825689697265625	0.007889790058135986	0.019137899398803712	0.927510009765625	-0.008798839569091797	0.022424200057983398	0.941177001953125	-0.02719529914855957	0.024413000106811522	0.9582449951171875	-0.043843299865722656	0.02072760009765625	0.9882130126953125	0.018687000274658205	0.042738399505615234	0.9701240234375	0.0022373299598693838	0.04261600112915039	0.9780679931640625	-0.013013899803161621	0.04086169815063476	0.9860999755859375	-0.03330519866943359	0.034698501586914066	1.0010900268554688	-0.06485649871826171	0.013589500427246094	1.058699951171875
66	2.2	-0.02969659996032715	-0.07592259979248046	0.98564501953125	-0.03575239944458008	-0.0577515983581543	1.0040700073242188	-0.04794319915771485	-0.043719799041748046	1.0274300537109375	-0.049799301147460937	-0.014078800201416015	1.0448900146484374	-0.011361000061035156	-0.028290599822998048	0.9207449951171875	-0.029024599075317382	-0.025639299392700196	0.9335	-0.044593299865722656	-0.023299699783325196	0.949926025390625	-0.05456499862670899	-0.01987030029296875	0.985510986328125	-0.002099200010299682	0.006514329910278321	0.9082410278320312	-0.01902120018005371	0.007425429821014404	0.9246669921875	-0.03769200134277344	0.0068667402267456054	0.9455549926757812	-0.05256269836425781	0.0035325698852539064	0.9820540161132812	0.007902060031890869	0.020998600006103516	0.9272589721679687	-0.008942299842834473	0.024089300155639648	0.940739013671875	-0.027382999420166015	0.02583760070800781	0.957822021484375	-0.04402019882202148	0.021849599838256836	0.9877260131835938	0.018375200271606447	0.04443199920654297	0.9698270263671875	0.0018367999792098999	0.04413190078735352	0.9777440185546875	-0.013441599845886231	0.04229819869995117	0.985676025390625	-0.033772499084472656	0.035879398345947264	1.000780029296875	-0.06501339721679687	0.014323399543762208	1.0580999755859375
67	2.2333333333333334	-0.02941699981689453	-0.07508719635009765	0.984926025390625	-0.03562739944458008	-0.057111698150634764	1.003260009765625	-0.04809289932250976	-0.04310630035400391	1.026719970703125	-0.050061901092529296	-0.013457900047302246	1.04422998046875	-0.011396599769592284	-0.02718169975280762	0.91997802734375	-0.029033899307250977	-0.024637800216674804	0.9327379760742187	-0.04462329864501953	-0.022384199142456054	0.94927099609375	-0.054600898742675784	-0.019081499099731444	0.9849229736328124	-0.002264450073242187	0.007886000156402588	0.9074970092773438	-0.019221200942993164	0.008620750427246094	0.9240590209960937	-0.037810298919677736	0.007846129894256591	0.944927001953125	-0.052592601776123044	0.00441087007522583	0.9814739990234375	0.007951059818267821	0.022103300094604494	0.9268909912109375	-0.008932869911193847	0.025108800888061524	0.9403469848632813	-0.027440000534057617	0.02678969955444336	0.9574650268554687	-0.04411949920654297	0.022703800201416015	0.9873629760742187	0.018252199172973632	0.045414600372314456	0.9697139892578125	0.0016594899892807	0.04509669876098633	0.9775	-0.013690699577331543	0.0432421989440918	0.9853099975585937	-0.03398500061035156	0.03671860122680664	1.0003200073242187	-0.06536209869384765	0.014929400444030762	1.057510009765625
